<?xml version="1.0" encoding="UTF-8"?>
<svg version="1.1" xmlns="http://www.w3.org/2000/svg" width="2000" height="2000">
<path d="M0 0 C660 0 1320 0 2000 0 C2000 660 2000 1320 2000 2000 C1340 2000 680 2000 0 2000 C0 1340 0 680 0 0 Z " fill="#FEFEFE" transform="translate(0,0)"/>
<path d="M0 0 C236.81132075 0 236.81132075 0 274 27 C275.04285156 27.74894531 276.08570313 28.49789062 277.16015625 29.26953125 C302.40500962 47.81555929 318.61785643 74.48617386 324.62548828 105.09960938 C324.95352397 106.76416598 325.31577818 108.42190405 325.68359375 110.078125 C331.95038586 142.40612846 323.84650057 176.69574416 306.03125 204.01953125 C292.37779618 223.38901435 275.34101671 236.640022 254.25 246.9375 C253.2919043 247.41050537 252.33380859 247.88351074 251.34667969 248.37084961 C245.30879097 251.23723262 239.6184217 253.04150105 233 254 C233.31525635 254.53028809 233.6305127 255.06057617 233.95532227 255.60693359 C240.48042788 266.59251947 246.94640731 277.60893266 253.3125 288.6875 C258.47365986 297.66627546 263.70504461 306.59949026 269 315.5 C274.90630138 325.42997367 280.72481401 335.40632611 286.48510742 345.42163086 C294.57848768 359.49330707 302.76166412 373.51271991 311 387.5 C315.21634427 394.6619727 319.42557581 401.82809183 323.625 409 C324.2540625 410.07056641 324.883125 411.14113281 325.53125 412.24414062 C326.11132812 413.23607422 326.69140625 414.22800781 327.2890625 415.25 C328.07337646 416.58804688 328.07337646 416.58804688 328.87353516 417.953125 C330 420 330 420 330 421 C291.72 421 253.44 421 214 421 C209.71 413.08 205.42 405.16 201 397 C196.13170724 388.3868236 196.13170724 388.3868236 191.25 379.78125 C187.35989048 372.89874854 183.61887812 365.93764807 179.87280273 358.97607422 C176.18637071 352.14320082 172.40537664 345.37096989 168.5625 338.625 C163.30851062 329.39879159 158.25048942 320.07845588 153.24389648 310.71606445 C148.77849866 302.38833089 144.23755208 294.10420068 139.44628906 285.95849609 C136.6468085 281.16169056 134.27004534 276.62941815 132.70947266 271.28442383 C131.46680891 268.25566448 131.46680891 268.25566448 127 263 C118.75 262.67 110.5 262.34 102 262 C102 314.47 102 366.94 102 421 C68.34 421 34.68 421 0 421 C0 282.07 0 143.14 0 0 Z " fill="#3258AF" transform="translate(620,714)"/>
<path d="M0 0 C236.01858108 0 236.01858108 0 279 35 C279.69996094 35.556875 280.39992188 36.11375 281.12109375 36.6875 C305.92764432 57.01892674 317.67177579 89.06273412 321 120 C321.28105851 125.08729187 321.33444591 130.15568605 321.3125 135.25 C321.30976578 136.26297653 321.30976578 136.26297653 321.30697632 137.29641724 C321.25799285 148.11410551 320.64978769 158.49112256 318 169 C317.76651855 169.96437988 317.76651855 169.96437988 317.52832031 170.94824219 C312.1604185 192.34484882 301.28218158 213.00132372 285 228 C284.154375 228.86625 283.30875 229.7325 282.4375 230.625 C250.36725958 261.87292656 206.57752242 270.23658708 163.3515625 270.09765625 C161.79711951 270.09618125 160.24267601 270.09516399 158.68823242 270.09460449 C153.00048058 270.08941622 147.31273945 270.07545534 141.625 270.0625 C128.87875 270.041875 116.1325 270.02125 103 270 C103 319.83 103 369.66 103 421 C69.01 421 35.02 421 0 421 C0 282.07 0 143.14 0 0 Z " fill="#2F55AA" transform="translate(237,714)"/>
<path d="M0 0 C222.0441247 0 222.0441247 0 268 23 C268.70479492 23.34498535 269.40958984 23.6899707 270.13574219 24.04541016 C285.36844908 31.54516927 299.15797941 40.88747754 312 52 C312.87398437 52.75152344 313.74796875 53.50304687 314.6484375 54.27734375 C319.88015461 58.87277094 324.55262342 63.65176889 329 69 C329.75925781 69.87140625 330.51851562 70.7428125 331.30078125 71.640625 C344.90856128 87.4705153 367 115.33752651 367 137 C355.78 137 344.56 137 333 137 C333 157.79 333 178.58 333 200 C313.53 200 294.06 200 274 200 C273.278125 195.359375 272.55625 190.71875 271.8125 185.9375 C267.07862717 157.02871881 255.81146043 130.35550225 231.85546875 112.0078125 C217.5703226 101.96326377 202.94690317 96.15969442 186 92 C185.154375 91.7834375 184.30875 91.566875 183.4375 91.34375 C158.52319831 85.29313388 122.09170033 88.31393282 102 88 C102 168.85 102 249.7 102 333 C172.72417485 334.42532852 172.72417485 334.42532852 235 306 C235.91265625 305.26265625 236.8253125 304.5253125 237.765625 303.765625 C255.26380734 288.80907808 263.78719841 268.65067222 270 247 C270.33 247 270.66 247 271 247 C271 258.55 271 270.1 271 282 C291.46 282 311.92 282 333 282 C333.61054521 297.53102228 333.61054521 297.53102228 333.79492188 304.21289062 C333.92043656 308.75216485 334.0555093 313.28957526 334.25170898 317.82641602 C334.40947051 321.48939153 334.52083204 325.15125188 334.60171318 328.81670189 C334.64022467 330.20649505 334.6947344 331.59595062 334.76637459 332.98443031 C335.15725393 340.78237078 334.76945037 345.92116903 329.76342773 352.12182617 C328.2101731 353.78092312 326.62199087 355.40803635 325 357 C324.14974747 357.89515823 323.29949493 358.79031647 322.42347717 359.71260071 C301.94120635 381.21005834 274.78606597 396.93073756 247 407 C245.90945313 407.39832031 244.81890625 407.79664063 243.6953125 408.20703125 C234.66384052 411.36709174 225.58475927 413.59659318 216.20898438 415.48510742 C213.10998762 416.20745315 210.05963571 417.12581837 207 418 C138.48430376 426.22188355 69.007246 421 0 421 C0 282.07 0 143.14 0 0 Z " fill="#3359B0" transform="translate(1019,714)"/>
<path d="M0 0 C0.8484549 -0.00358521 1.69690979 -0.00717041 2.57107544 -0.01086426 C14.11850796 -0.03708338 25.31157874 0.69775917 36.75 2.3125 C37.44254883 2.40794601 38.13509766 2.50339203 38.84863281 2.60173035 C58.62323343 5.34629561 78.45793906 11.2315575 95.75 21.3125 C96.73419922 21.87275879 96.73419922 21.87275879 97.73828125 22.44433594 C126.23018241 38.80130214 146.55886543 63.51230742 155.33691406 95.44775391 C155.92261442 97.70879513 156.47002941 99.97527829 157 102.25 C157.16322754 102.92820801 157.32645508 103.60641602 157.49462891 104.30517578 C159.11641915 111.72326855 159.22874584 118.49368765 159.75 126.3125 C122.79 126.3125 85.83 126.3125 47.75 126.3125 C46.76 121.3625 45.77 116.4125 44.75 111.3125 C40.4843374 99.99208771 32.32163891 92.69167553 21.4375 87.71875 C7.92867368 82.56707895 -7.14521851 81.09466015 -20.8828125 86.3125 C-31.53407469 91.26354542 -37.16547581 97.30356785 -41.25 108.3125 C-44.1078118 116.8859354 -43.20649193 129.22995221 -39.25 137.3125 C-25.31717187 160.68868942 12.0111919 169.121158 36.15365601 177.23168945 C132.27513401 209.52629954 132.27513401 209.52629954 153.96484375 251.484375 C157.59040508 258.80498692 161.09082812 266.27861511 162.75 274.3125 C163.05357422 275.77429688 163.05357422 275.77429688 163.36328125 277.265625 C168.94929571 310.55371118 163.09604567 344.2104347 144.00390625 372.234375 C126.76787722 395.77335399 104.93897058 411.16990596 77.75 421.3125 C76.87730469 421.63863281 76.00460937 421.96476562 75.10546875 422.30078125 C66.17274087 425.43930726 56.94331561 427.36622552 47.625 428.9375 C46.53360718 429.1221582 46.53360718 429.1221582 45.42016602 429.31054688 C33.99024508 431.16577897 22.68528401 431.55130846 11.125 431.5625 C9.89944901 431.56450912 9.89944901 431.56450912 8.6491394 431.56655884 C-9.96537537 431.55996142 -28.15866579 429.87132427 -46.25 425.3125 C-47.16007812 425.08820313 -48.07015625 424.86390625 -49.0078125 424.6328125 C-51.77421173 423.91500045 -54.51001484 423.12517587 -57.25 422.3125 C-58.33152344 422.01085938 -59.41304687 421.70921875 -60.52734375 421.3984375 C-81.95882714 414.92943383 -101.15452305 402.72247963 -117.25 387.3125 C-117.99636719 386.62929687 -118.74273438 385.94609375 -119.51171875 385.2421875 C-140.16229522 365.70883244 -150.26809589 338.07087569 -153.25 310.3125 C-153.25 307.3425 -153.25 304.3725 -153.25 301.3125 C-117.28 301.3125 -81.31 301.3125 -44.25 301.3125 C-42.93 306.2625 -41.61 311.2125 -40.25 316.3125 C-35.72062049 329.38299516 -28.82402989 338.19759336 -16.25 344.3125 C-7.89081322 347.96694654 -0.78683106 348.54918766 8.25 348.625 C9.93222656 348.66850586 9.93222656 348.66850586 11.6484375 348.71289062 C25.53973801 348.81715558 38.45096584 344.1020254 48.69921875 334.66796875 C54.66796366 327.81243888 57.11059679 319.14215126 56.953125 310.21875 C56.09943729 298.0044489 52.18820468 289.12645039 43.05078125 280.875 C25.54086923 267.03538997 3.17891744 260.74687839 -17.88671875 254.359375 C-21.77757874 253.14828269 -25.57994829 251.75830642 -29.39501953 250.32983398 C-32.2948263 249.29652675 -35.21003869 248.39829467 -38.16015625 247.51953125 C-45.5267118 245.26764363 -52.77082379 242.71882442 -60 240.0625 C-60.98262817 239.70167328 -60.98262817 239.70167328 -61.98510742 239.33355713 C-72.34362715 235.51422347 -82.49802048 231.51441457 -92.25 226.3125 C-92.92562988 225.97041504 -93.60125977 225.62833008 -94.29736328 225.27587891 C-98.70763913 223.0112545 -102.68282768 220.78565383 -106.25 217.3125 C-107.37213762 213.39263465 -107.1787389 210.25595484 -106.25 206.3125 C-107.08402344 206.41691406 -107.91804688 206.52132812 -108.77734375 206.62890625 C-117.70147756 207.27291591 -117.70147756 207.27291591 -121.80078125 204.73046875 C-124.17659578 202.38841358 -126.211794 199.9535026 -128.25 197.3125 C-128.99894531 196.41917969 -129.74789063 195.52585937 -130.51953125 194.60546875 C-151.03106483 169.06214499 -154.48310441 137.35465377 -151.30932617 105.72705078 C-149.93136154 94.14943491 -146.595126 82.6936801 -141.25 72.3125 C-140.49589844 70.79076172 -140.49589844 70.79076172 -139.7265625 69.23828125 C-135.94330359 61.86862984 -131.67079753 55.56002148 -126.25 49.3125 C-125.62351562 48.55324219 -124.99703125 47.79398438 -124.3515625 47.01171875 C-104.03134293 23.00068379 -71.53585884 9.17034241 -41.25 3.3125 C-40.19159912 3.08820312 -40.19159912 3.08820312 -39.11181641 2.859375 C-26.15247462 0.1731411 -13.18012846 0.02241493 0 0 Z " fill="#345AB0" transform="translate(1604.25,707.6875)"/>
<path d="M0 0 C18.81 0 37.62 0 57 0 C57 20.79 57 41.58 57 63 C77.46 63 97.92 63 119 63 C119 80.82 119 98.64 119 117 C98.54 117 78.08 117 57 117 C57 137.79 57 158.58 57 180 C38.19 180 19.38 180 0 180 C0 159.21 0 138.42 0 117 C-20.46 117 -40.92 117 -62 117 C-62 99.18 -62 81.36 -62 63 C-41.54 63 -21.08 63 0 63 C0 42.21 0 21.42 0 0 Z " fill="#008000" transform="translate(1366,865)"/>
<path d="M0 0 C11.4675 -0.04125 22.935 -0.0825 34.75 -0.125 C40.14617676 -0.15231201 40.14617676 -0.15231201 45.65136719 -0.18017578 C50.10400391 -0.18920898 50.10400391 -0.18920898 52.20001221 -0.19088745 C53.63866418 -0.19392347 55.07731164 -0.20088291 56.51593018 -0.21115112 C74.99277832 -0.33623617 92.3611418 1.71449741 106.6875 14.375 C117.02233894 26.1064388 120.13726999 37.16746152 120.25 52.625 C120.25926514 53.41229492 120.26853027 54.19958984 120.27807617 55.01074219 C120.20413486 68.91170942 115.38897525 81.67529918 106 92 C91.39937423 104.42457097 72.83310882 105.16207272 54.58984375 105.09765625 C53.1891687 105.09618298 51.7884931 105.09516464 50.38781738 105.09460449 C45.2377031 105.08939624 40.08760067 105.07543506 34.9375 105.0625 C23.408125 105.041875 11.87875 105.02125 0 105 C0 70.35 0 35.7 0 0 Z " fill="#FDFDFE" transform="translate(722,799)"/>
<path d="M0 0 C11.26125 -0.0825 22.5225 -0.165 34.125 -0.25 C37.65203613 -0.28641602 41.17907227 -0.32283203 44.81298828 -0.36035156 C49.19311523 -0.37841797 49.19311523 -0.37841797 51.25778198 -0.3817749 C52.66888509 -0.38782979 54.07997042 -0.40171115 55.49093628 -0.42230225 C71.81099229 -0.64810834 88.34669969 2.65022573 100.8125 14 C111.75757309 25.80077881 114.63335254 40.06931947 114.24609375 55.68359375 C113.67397982 68.50065356 109.80477972 81.89649238 100.79296875 91.41796875 C87.45743275 103.18461816 71.79203592 105.79336669 54.6875 105.48828125 C53.27409867 105.48089857 51.86068347 105.47581702 50.44726562 105.47302246 C45.29796397 105.44716975 40.14895796 105.37736713 35 105.3125 C23.45 105.209375 11.9 105.10625 0 105 C0 70.35 0 35.7 0 0 Z " fill="#FEFEFE" transform="translate(340,797)"/>
<path d="M0 0 C0.66 0 1.32 0 2 0 C2 0.99 2 1.98 2 3 C2.99 3 3.98 3 5 3 C5 3.99 5 4.98 5 6 C4.01 6 3.02 6 2 6 C2 6.99 2 7.98 2 9 C1.34 9 0.68 9 0 9 C0 8.01 0 7.02 0 6 C-0.99 6 -1.98 6 -3 6 C-3 5.01 -3 4.02 -3 3 C-2.01 3 -1.02 3 0 3 C0 2.01 0 1.02 0 0 Z " fill="#1D4EB1" transform="translate(999,1328)"/>
</svg>
