<?xml version="1.0" encoding="UTF-8"?>
<svg version="1.1" xmlns="http://www.w3.org/2000/svg" width="2000" height="2000">
<path d="M0 0 C660 0 1320 0 2000 0 C2000 660 2000 1320 2000 2000 C1340 2000 680 2000 0 2000 C0 1340 0 680 0 0 Z " fill="#FEFEFE" transform="translate(0,0)"/>
<path d="M0 0 C248.36281859 0 248.36281859 0 292 42 C293.07701172 42.96486328 293.07701172 42.96486328 294.17578125 43.94921875 C314.85853233 63.05693067 325.79103302 95.26506898 327.1328125 122.71728516 C328.55350859 158.96279421 318.47183812 190.85956932 294.5 218.25 C278.06857428 235.98012947 257.72882829 246.50777134 235 254 C235 257.7047133 236.06172953 259.12723937 237.97265625 262.28515625 C238.61726807 263.35967041 239.26187988 264.43418457 239.92602539 265.54125977 C240.27359894 266.11401642 240.62117249 266.68677307 240.97927856 267.27688599 C242.83305956 270.332713 244.66470522 273.4017984 246.5 276.46875 C246.87766006 277.09846207 247.25532013 277.72817413 247.64442444 278.37696838 C251.35202211 284.56624971 254.96742645 290.80724426 258.5625 297.0625 C259.17689941 298.13000488 259.79129883 299.19750977 260.42431641 300.29736328 C262.90326354 304.60679769 265.37878775 308.91819436 267.85449219 313.22949219 C275.57354822 326.66576594 283.3723553 340.04878845 291.28955078 353.36889648 C296.49114695 362.1244695 301.61926213 370.91966325 306.70117188 379.74511719 C308.98367212 383.70774355 311.27276847 387.66654899 313.5625 391.625 C314.01197998 392.40294922 314.46145996 393.18089844 314.92456055 393.98242188 C317.22354747 397.95554925 319.53810905 401.91852994 321.87890625 405.8671875 C322.34031006 406.64626465 322.80171387 407.4253418 323.27709961 408.22802734 C324.15421592 409.7064632 325.03380816 411.18343388 325.91625977 412.65869141 C327.55284145 415.41677819 328.98242856 417.94728568 330 421 C291.72 421 253.44 421 214 421 C209.38 412.42 204.76 403.84 200 395 C197.14204046 389.82673146 194.28069519 384.65715333 191.39599609 379.49902344 C188.5474581 374.39975185 185.71195696 369.29322071 182.875 364.1875 C182.23884766 363.04273193 181.60269531 361.89796387 180.94726562 360.71850586 C174.27776575 348.71230037 167.64586909 336.68540906 161.01611328 324.65722656 C159.34324835 321.62236967 157.66983616 318.58781566 155.99533081 315.55386353 C155.32882014 314.34544018 154.66306955 313.1365973 153.99807739 311.92733765 C152.34315646 308.92024434 150.67587941 305.92148733 148.98046875 302.93701172 C145.81429061 297.33195209 142.8185735 291.74467332 140.23403931 285.84399414 C139.02626086 283.10846774 137.74603425 280.40977419 136.45922852 277.71069336 C135.87182528 276.4263385 135.31959478 275.12517327 134.80786133 273.80883789 C132.82180536 268.71944588 131.20941852 267.24304496 127 263 C118.75 262.67 110.5 262.34 102 262 C102 314.47 102 366.94 102 421 C68.34 421 34.68 421 0 421 C0 282.07 0 143.14 0 0 Z " fill="#3258AF" transform="translate(620,750)"/>
<path d="M0 0 C244.32917317 0 244.32917317 0 288 43 C316.54272087 73.88157812 322.36182225 111.4949192 321 152 C320.61858368 157.84137591 319.60154315 163.36504029 318 169 C317.77957031 169.79696289 317.55914063 170.59392578 317.33203125 171.41503906 C307.51435105 205.89379691 287.04388606 231.96293384 256.0625 249.75 C248.61929137 253.88819847 241.00643984 257.12610949 233 260 C231.34871094 260.64388672 231.34871094 260.64388672 229.6640625 261.30078125 C201.48570796 271.34670676 170.88297234 270.65370248 141.4375 270.3125 C122.4109375 270.1578125 122.4109375 270.1578125 103 270 C103 319.83 103 369.66 103 421 C69.01 421 35.02 421 0 421 C0 282.07 0 143.14 0 0 Z " fill="#2F55AA" transform="translate(237,750)"/>
<path d="M0 0 C188.55923159 0 188.55923159 0 208.75 3.75 C209.6570166 3.91773926 210.5640332 4.08547852 211.49853516 4.25830078 C262.0720467 13.99703068 307.82778623 39.47856144 339 81 C339.62777344 81.83273437 340.25554687 82.66546875 340.90234375 83.5234375 C348.82401681 94.44602671 355.41045271 106.23691368 361 118.5 C361.37366699 119.31194824 361.74733398 120.12389648 362.13232422 120.96044922 C362.65463623 122.14018311 362.65463623 122.14018311 363.1875 123.34375 C363.49042969 124.02630859 363.79335937 124.70886719 364.10546875 125.41210938 C365.40613927 129.17496624 366.13633243 133.11349593 367 137 C355.78 137 344.56 137 333 137 C333 157.79 333 178.58 333 200 C313.53 200 294.06 200 274 200 C273.01 193.07 272.02 186.14 271 179 C264.46749638 150.07034112 251.87060223 124.87917129 226.5 108.125 C188.56397217 84.6407923 146.19935472 87.84998759 102 87 C102 167.85 102 248.7 102 332 C173.43121064 333.50594506 173.43121064 333.50594506 235 306 C235.67289063 305.49984375 236.34578125 304.9996875 237.0390625 304.484375 C254.73748613 290.42261376 263.98188971 268.10498585 270 247 C270.33 247 270.66 247 271 247 C271 258.55 271 270.1 271 282 C291.46 282 311.92 282 333 282 C333.69076283 297.49091347 333.69076283 297.49091347 333.89257812 304.1640625 C334.02992576 308.69505901 334.17884153 313.22331613 334.40258789 317.75097656 C334.58248819 321.4074215 334.7055104 325.06200962 334.79146767 328.72182465 C334.83359349 330.10820187 334.89521287 331.49414617 334.9778347 332.87870026 C335.40092735 340.19018544 335.06978272 345.49694945 330.19936848 351.07600021 C328.75914492 352.5707596 327.2861878 354.00618456 325.76679993 355.42010498 C323.21232989 357.80201358 321.13076208 360.24345379 319 363 C290.61066564 390.44513802 251.57574549 408.90457766 213 416 C211.47704123 416.34491251 209.95580753 416.69765716 208.4375 417.0625 C143.59805771 431.66049826 43.79081535 421 0 421 C0 282.07 0 143.14 0 0 Z " fill="#3359B0" transform="translate(1019,750)"/>
<path d="M0 0 C1.36405975 0.00089127 1.36405975 0.00089127 2.75567627 0.00180054 C17.2350129 0.03786588 31.50771706 0.18005076 45.6875 3.4375 C47.15654785 3.76959473 47.15654785 3.76959473 48.65527344 4.10839844 C86.47529285 12.86427636 120.79702595 30.22640437 141.9609375 64.0234375 C153.05917928 82.43228098 159.5625 104.71868626 159.5625 126.25 C122.6025 126.25 85.6425 126.25 47.5625 126.25 C46.9025 121.96 46.2425 117.67 45.5625 113.25 C44.32809083 109.61688465 44.32809083 109.61688465 42.6875 106.75 C42.19507813 105.8115625 41.70265625 104.873125 41.1953125 103.90625 C35.05695232 93.9204009 25.78966085 88.17818481 14.5625 85.25 C-1.31492135 82.04521484 -15.19142249 81.72697137 -29.17578125 90.57421875 C-36.2700442 95.83058974 -40.33485385 102.76089334 -42.4375 111.25 C-43.43925766 123.28410173 -42.5539786 133.26498405 -34.64453125 142.65625 C-33.4375 144.25 -33.4375 144.25 -33.4375 146.25 C-32.87417969 146.51554688 -32.31085938 146.78109375 -31.73046875 147.0546875 C-29.26850262 148.33809744 -27.05107679 149.82168286 -24.75 151.375 C-5.7295512 163.48802266 16.34566202 170.16932139 37.55621338 177.35983276 C102.9665708 199.54223723 102.9665708 199.54223723 127.5625 220.25 C128.42230469 220.96414063 129.28210937 221.67828125 130.16796875 222.4140625 C149.66891101 239.30204353 161.72417056 261.23490561 164.1875 287 C164.3344036 289.41543415 164.4562335 291.83243713 164.5625 294.25 C164.60181641 295.02359863 164.64113281 295.79719727 164.68164062 296.59423828 C166.14515206 328.78528856 156.26627723 357.60647486 135.5625 382.25 C134.67498047 383.35794922 134.67498047 383.35794922 133.76953125 384.48828125 C120.47491209 400.4474936 101.33018643 411.08408452 82.5625 419.25 C81.47324219 419.7346875 80.38398437 420.219375 79.26171875 420.71875 C71.20480107 424.07665216 62.9919039 425.80755243 54.45703125 427.453125 C50.78997769 428.02841174 50.78997769 428.02841174 48.5625 429.25 C46.58690132 429.45466634 44.60661189 429.61549059 42.625 429.75 C39.33205062 429.9740646 36.70086918 430.20387694 33.5625 431.25 C32.20031026 431.34535992 30.83401025 431.38804151 29.46850586 431.39526367 C28.23462379 431.40483345 28.23462379 431.40483345 26.97581482 431.41459656 C26.08531937 431.41570938 25.19482391 431.4168222 24.27734375 431.41796875 C23.34765274 431.42129715 22.41796173 431.42462555 21.46009827 431.42805481 C19.48211155 431.43312469 17.50411626 431.43546312 15.52612305 431.43530273 C12.56348522 431.4374539 9.601242 431.45550882 6.63867188 431.47460938 C-9.62869038 431.52509995 -25.25353341 430.47884105 -41.0625 426.4375 C-42.66085693 426.03785034 -42.66085693 426.03785034 -44.29150391 425.63012695 C-47.34549533 424.85564435 -50.39247436 424.05893317 -53.4375 423.25 C-54.61022461 422.94255859 -54.61022461 422.94255859 -55.80664062 422.62890625 C-71.85758977 418.33086816 -87.06860171 411.11928364 -100.4375 401.25 C-101.49195313 400.49074219 -102.54640625 399.73148438 -103.6328125 398.94921875 C-121.32897445 385.97273253 -133.98191026 370.00326634 -143.4375 350.25 C-143.90929688 349.27417969 -144.38109375 348.29835938 -144.8671875 347.29296875 C-148.02233355 339.97342185 -149.6413098 332.40839744 -151.25 324.625 C-151.57907349 323.05129639 -151.57907349 323.05129639 -151.91479492 321.44580078 C-152.2141394 319.90641846 -152.2141394 319.90641846 -152.51953125 318.3359375 C-152.69718018 317.4289209 -152.8748291 316.5219043 -153.05786133 315.58740234 C-153.59820678 310.83722723 -153.4375 306.03080922 -153.4375 301.25 C-117.1375 301.25 -80.8375 301.25 -43.4375 301.25 C-42.7775 305.54 -42.1175 309.83 -41.4375 314.25 C-37.41341239 328.05548408 -28.9563541 337.44077091 -16.45703125 344.34375 C-8.3097087 348.07250174 -0.36931621 348.58998694 8.4375 348.5625 C9.46230469 348.57861328 10.48710938 348.59472656 11.54296875 348.61132812 C24.14203058 348.61933261 36.94312297 344.34808009 46.87109375 336.40234375 C54.9190029 327.9736733 56.23190528 317.87558185 56.17382812 306.67602539 C55.81914553 297.45340857 52.69701095 290.46187364 46.5625 283.5625 C33.67029258 271.96797647 17.43997951 265.96183549 1.4375 260.0625 C0.13329102 259.58091431 0.13329102 259.58091431 -1.19726562 259.08959961 C-7.29830752 256.8914301 -13.46438534 255.08060588 -19.70654297 253.32836914 C-26.33917747 251.41131989 -32.88877252 249.24667994 -39.4375 247.0625 C-40.15372528 246.82389252 -40.86995056 246.58528503 -41.60787964 246.33944702 C-63.92600425 238.87611447 -86.73777964 230.3831469 -106.4375 217.25 C-106.73046875 214.6484375 -106.73046875 214.6484375 -106.625 211.625 C-106.58439453 210.12066406 -106.58439453 210.12066406 -106.54296875 208.5859375 C-106.49076172 207.42964844 -106.49076172 207.42964844 -106.4375 206.25 C-107.72333984 206.37181641 -107.72333984 206.37181641 -109.03515625 206.49609375 C-118.02055439 206.99246862 -118.02055439 206.99246862 -121.47265625 205.18359375 C-123.35778076 203.33552329 -124.86280609 201.37122541 -126.4375 199.25 C-127.28957031 198.25355469 -128.14164063 197.25710938 -129.01953125 196.23046875 C-147.86029392 173.98337442 -153.21763853 146.8440607 -152.4375 118.25 C-152.41945313 117.08855469 -152.40140625 115.92710937 -152.3828125 114.73046875 C-151.16874218 84.62866628 -137.4469574 57.94905223 -115.6875 37.5625 C-95.20484914 19.03885574 -69.09551688 8.93248933 -42.4375 3.25 C-41.69129395 3.08338867 -40.94508789 2.91677734 -40.17626953 2.74511719 C-26.90269757 -0.09606839 -13.50895454 -0.00977747 0 0 Z " fill="#345AB0" transform="translate(1604.4375,743.75)"/>
<path d="M0 0 C18.81 0 37.62 0 57 0 C57 21.12 57 42.24 57 64 C77.46 64 97.92 64 119 64 C119 81.82 119 99.64 119 118 C98.54 118 78.08 118 57 118 C57 138.79 57 159.58 57 181 C38.19 181 19.38 181 0 181 C0 160.21 0 139.42 0 118 C-20.46 118 -40.92 118 -62 118 C-62 100.18 -62 82.36 -62 64 C-41.54 64 -21.08 64 0 64 C0 42.88 0 21.76 0 0 Z " fill="#008000" transform="translate(1366,900)"/>
<path d="M0 0 C18.0675 -0.12375 18.0675 -0.12375 36.5 -0.25 C40.26986328 -0.28641602 44.03972656 -0.32283203 47.92382812 -0.36035156 C52.61230469 -0.37841797 52.61230469 -0.37841797 54.8236084 -0.3817749 C56.33212031 -0.3878223 57.84061586 -0.4016868 59.34899902 -0.42230225 C76.4365597 -0.64368063 94.10832116 1.7620509 107.12109375 13.93359375 C119.3267441 27.35727158 120.92587966 41.91700747 120.22265625 59.31420898 C119.13358246 72.45116154 113.85066745 83.63696892 104.3125 92.6875 C89.88349882 104.72995536 70.85570907 105.16249212 53.02734375 105.09765625 C51.66638225 105.09618285 50.30542019 105.0951646 48.94445801 105.09460449 C43.94212993 105.08939769 38.93981406 105.07543653 33.9375 105.0625 C22.738125 105.041875 11.53875 105.02125 0 105 C0 70.35 0 35.7 0 0 Z " fill="#FDFDFE" transform="translate(722,835)"/>
<path d="M0 0 C11.3025 -0.061875 22.605 -0.12375 34.25 -0.1875 C39.56786621 -0.22846802 39.56786621 -0.22846802 44.99316406 -0.27026367 C49.38232422 -0.28381348 49.38232422 -0.28381348 51.44866943 -0.28633118 C52.86650431 -0.29088424 54.28432891 -0.30132143 55.7020874 -0.31672668 C72.95760208 -0.49455834 89.24858124 2.55743913 102 15 C113.52411912 28.94764632 115.28335156 44.97938419 113.6875 62.4140625 C112.1980905 72.70694598 108.78971334 81.10613425 102 89 C101.51015625 89.60714844 101.0203125 90.21429687 100.515625 90.83984375 C92.32100985 100.10949505 78.26968375 104.42422296 66.22480774 105.2628479 C61.98804632 105.38169754 57.75321925 105.33901413 53.515625 105.29296875 C52.1378618 105.28854437 50.7600935 105.28549219 49.38232422 105.28381348 C44.33813801 105.26824154 39.29406056 105.22635866 34.25 105.1875 C17.29625 105.0946875 17.29625 105.0946875 0 105 C0 70.35 0 35.7 0 0 Z " fill="#FEFEFE" transform="translate(340,833)"/>
<path d="M0 0 C31.63145018 0 31.63145018 0 40.4375 6.125 C47.17500499 13.68415195 49.01567638 21.16602717 48.484375 31.14453125 C47.60441076 38.14876276 45.08310042 42.771567 40.3125 47.875 C26.30241308 56.86260293 18.43324241 54 0 54 C0 36.18 0 18.36 0 0 Z " fill="#E38723" transform="translate(578,1324)"/>
<path d="M0 0 C4.29 0 8.58 0 13 0 C13.33 1.32 13.66 2.64 14 4 C14.763125 3.34 15.52625 2.68 16.3125 2 C20.84506709 -1.00739049 25.76864559 -0.7722115 31 0 C34.37840228 1.26616128 37.32512789 2.65025577 39 6 C41.52768571 4.83337583 43.35452743 3.69865168 45.5 1.875 C50.62238687 -0.86913582 55.30371848 -0.77463169 61 0 C65.47870656 2.15937638 68.18198188 4.92952939 71 9 C72.17942085 12.53826255 72.11289189 15.34148726 72.09765625 19.07421875 C72.0962413 19.7580513 72.09482635 20.44188385 72.09336853 21.1464386 C72.08777876 23.32683722 72.07522822 25.50713251 72.0625 27.6875 C72.05748367 29.16731622 72.052921 30.64713406 72.04882812 32.12695312 C72.03781271 35.75133557 72.02055512 39.3756577 72 43 C67.71 43 63.42 43 59 43 C58.93941406 41.08574219 58.87882812 39.17148438 58.81640625 37.19921875 C58.73200465 34.69530461 58.64735646 32.19139877 58.5625 29.6875 C58.52318359 28.42486328 58.48386719 27.16222656 58.44335938 25.86132812 C58.40146484 24.65283203 58.35957031 23.44433594 58.31640625 22.19921875 C58.26141968 20.52605591 58.26141968 20.52605591 58.20532227 18.8190918 C58.11068791 15.92126429 58.11068791 15.92126429 57 13 C55.1746875 12.6596875 55.1746875 12.6596875 53.3125 12.3125 C52.28576172 12.12107422 52.28576172 12.12107422 51.23828125 11.92578125 C48.03010335 12.03216062 46.50943331 13.0205851 44 15 C43.21817463 17.98361467 43.21817463 17.98361467 43.29296875 21.41796875 C43.26396484 22.67158203 43.23496094 23.92519531 43.20507812 25.21679688 C43.19927734 26.52712891 43.19347656 27.83746094 43.1875 29.1875 C43.16435713 30.52282731 43.13899219 31.85811808 43.11132812 33.19335938 C43.05232888 36.46191777 43.0233349 39.73099244 43 43 C38.38 43 33.76 43 29 43 C28.95101563 41.00195312 28.90203125 39.00390625 28.8515625 36.9453125 C28.79594235 35.01251243 28.74025454 33.07971363 28.68261719 31.14697266 C28.62545964 29.14113029 28.57831404 27.13501082 28.53125 25.12890625 C28.49257812 23.87207031 28.45390625 22.61523438 28.4140625 21.3203125 C28.3826416 20.15773926 28.3512207 18.99516602 28.31884766 17.79736328 C28.27842131 14.86343518 28.27842131 14.86343518 26 13 C23.33050591 12.75684344 23.33050591 12.75684344 20.375 12.875 C19.37210938 12.89304687 18.36921875 12.91109375 17.3359375 12.9296875 C16.17964844 12.96449219 16.17964844 12.96449219 15 13 C13.92044788 16.23865635 13.79558259 18.79155838 13.68359375 22.19921875 C13.64169922 23.40771484 13.59980469 24.61621094 13.55664062 25.86132812 C13.51732422 27.12396484 13.47800781 28.38660156 13.4375 29.6875 C13.39431641 30.96173828 13.35113281 32.23597656 13.30664062 33.54882812 C13.20045211 36.69908727 13.09971187 39.8495292 13 43 C8.71 43 4.42 43 0 43 C0 28.81 0 14.62 0 0 Z " fill="#E38824" transform="translate(1355,1335)"/>
<path d="M0 0 C4.29 0 8.58 0 13 0 C13.33 1.32 13.66 2.64 14 4 C14.763125 3.34 15.52625 2.68 16.3125 2 C20.84506709 -1.00739049 25.76864559 -0.7722115 31 0 C34.37840228 1.26616128 37.32512789 2.65025577 39 6 C41.52768571 4.83337583 43.35452743 3.69865168 45.5 1.875 C50.62238687 -0.86913582 55.30371848 -0.77463169 61 0 C65.47870656 2.15937638 68.18198188 4.92952939 71 9 C72.17942085 12.53826255 72.11289189 15.34148726 72.09765625 19.07421875 C72.0962413 19.7580513 72.09482635 20.44188385 72.09336853 21.1464386 C72.08777876 23.32683722 72.07522822 25.50713251 72.0625 27.6875 C72.05748367 29.16731622 72.052921 30.64713406 72.04882812 32.12695312 C72.03781271 35.75133557 72.02055512 39.3756577 72 43 C67.71 43 63.42 43 59 43 C58.93941406 41.08574219 58.87882813 39.17148438 58.81640625 37.19921875 C58.73200465 34.69530461 58.64735646 32.19139877 58.5625 29.6875 C58.52318359 28.42486328 58.48386719 27.16222656 58.44335938 25.86132812 C58.40146484 24.65283203 58.35957031 23.44433594 58.31640625 22.19921875 C58.26141968 20.52605591 58.26141968 20.52605591 58.20532227 18.8190918 C58.11068791 15.92126429 58.11068791 15.92126429 57 13 C53.44646071 11.8154869 50.72986522 11.73358106 47 12 C45.18629571 13.04911888 45.18629571 13.04911888 44 15 C43.49281944 17.9988613 43.49281944 17.9988613 43.48828125 21.41796875 C43.45283203 22.67158203 43.41738281 23.92519531 43.38085938 25.21679688 C43.35830078 26.52712891 43.33574219 27.83746094 43.3125 29.1875 C43.27932334 30.52282013 43.24483334 31.85810832 43.20898438 33.19335938 C43.12638491 36.46193825 43.06151996 39.73095644 43 43 C38.38 43 33.76 43 29 43 C28.95101562 41.00195312 28.90203125 39.00390625 28.8515625 36.9453125 C28.79594235 35.01251243 28.74025454 33.07971363 28.68261719 31.14697266 C28.62545964 29.14113029 28.57831404 27.13501082 28.53125 25.12890625 C28.49257813 23.87207031 28.45390625 22.61523438 28.4140625 21.3203125 C28.3826416 20.15773926 28.3512207 18.99516602 28.31884766 17.79736328 C28.27842131 14.86343518 28.27842131 14.86343518 26 13 C23.33050591 12.75684344 23.33050591 12.75684344 20.375 12.875 C19.37210938 12.89304687 18.36921875 12.91109375 17.3359375 12.9296875 C16.17964844 12.96449219 16.17964844 12.96449219 15 13 C13.92044788 16.23865635 13.79558259 18.79155838 13.68359375 22.19921875 C13.64169922 23.40771484 13.59980469 24.61621094 13.55664062 25.86132812 C13.51732422 27.12396484 13.47800781 28.38660156 13.4375 29.6875 C13.39431641 30.96173828 13.35113281 32.23597656 13.30664062 33.54882812 C13.20045211 36.69908727 13.09971187 39.8495292 13 43 C8.71 43 4.42 43 0 43 C0 28.81 0 14.62 0 0 Z " fill="#E38824" transform="translate(627,1227)"/>
<path d="M0 0 C4.29 0 8.58 0 13 0 C13.33 5.94 13.66 11.88 14 18 C16.31 16.68 18.62 15.36 21 14 C26.78714677 12.74475972 31.83551421 13.42001582 36.9375 16.4375 C41.45567466 19.92734459 43.76814349 23.42422844 45 29 C45.94281718 36.83263507 45.84525174 43.5028458 41.43359375 50.2265625 C38.67124142 53.6437504 36.15430016 55.61523328 32 57 C20.6669183 57.99757285 20.6669183 57.99757285 16.25 55 C15.5075 54.34 14.765 53.68 14 53 C13.67 54.32 13.34 55.64 13 57 C8.71 57 4.42 57 0 57 C0 38.19 0 19.38 0 0 Z " fill="#E38722" transform="translate(812,1321)"/>
<path d="M0 0 C6.6825 -0.12375 6.6825 -0.12375 13.5 -0.25 C15.58344727 -0.30462402 15.58344727 -0.30462402 17.70898438 -0.36035156 C26.70012586 -0.44076858 32.03060429 0.53733566 38.9375 6.5625 C42.32365494 10.56431947 42.39241314 14.30886456 42.35546875 19.35546875 C41.7830419 23.61407291 39.79284403 26.79019615 37 30 C34 32 34 32 31 32 C31.89535257 33.64609493 32.79131399 35.29185868 33.6875 36.9375 C34.23019531 37.93523437 34.77289062 38.93296875 35.33203125 39.9609375 C37.22170475 43.40394917 39.1593557 46.81799907 41.1171875 50.22265625 C42 52 42 52 42 54 C37.20572344 54.59107519 32.77178651 54.85838841 28 54 C24.89696088 51.16376425 23.58555872 47.84152146 22 44 C21.12747086 42.30033341 20.23301972 40.6116616 19.3125 38.9375 C18.93738281 38.20402344 18.56226563 37.47054688 18.17578125 36.71484375 C17.03071298 34.67490099 17.03071298 34.67490099 14 34 C14 40.6 14 47.2 14 54 C9.38 54 4.76 54 0 54 C0 36.18 0 18.36 0 0 Z " fill="#E38A27" transform="translate(1144,1216)"/>
<path d="M0 0 C2.9375 1.5625 2.9375 1.5625 3.9375 2.5625 C4.2675 1.2425 4.5975 -0.0775 4.9375 -1.4375 C9.2275 -1.4375 13.5175 -1.4375 17.9375 -1.4375 C17.9375 12.7525 17.9375 26.9425 17.9375 41.5625 C13.6475 41.5625 9.3575 41.5625 4.9375 41.5625 C4.6075 40.2425 4.2775 38.9225 3.9375 37.5625 C3.339375 38.036875 2.74125 38.51125 2.125 39 C-2.94437706 42.62098362 -9.09221804 42.34189042 -15.0625 41.5625 C-20.29014692 39.28119193 -24.19404569 35.26578766 -26.43359375 30.0234375 C-28.57125351 21.65868194 -28.0733492 13.11928701 -23.66796875 5.62890625 C-17.67761215 -2.08130942 -8.91954659 -3.67382964 0 0 Z " fill="#E38723" transform="translate(1065.0625,1228.4375)"/>
<path d="M0 0 C2.9375 1.5625 2.9375 1.5625 3.9375 2.5625 C4.2675 1.2425 4.5975 -0.0775 4.9375 -1.4375 C9.2275 -1.4375 13.5175 -1.4375 17.9375 -1.4375 C17.9375 12.7525 17.9375 26.9425 17.9375 41.5625 C13.6475 41.5625 9.3575 41.5625 4.9375 41.5625 C4.6075 40.2425 4.2775 38.9225 3.9375 37.5625 C3.339375 38.036875 2.74125 38.51125 2.125 39 C-2.94437706 42.62098362 -9.09221804 42.34189042 -15.0625 41.5625 C-20.29014692 39.28119193 -24.19404569 35.26578766 -26.43359375 30.0234375 C-28.57125351 21.65868194 -28.0733492 13.11928701 -23.66796875 5.62890625 C-17.67761215 -2.08130942 -8.91954659 -3.67382964 0 0 Z " fill="#E38723" transform="translate(558.0625,1228.4375)"/>
<path d="M0 0 C2.70744644 1.0616528 4.60815686 2.29913377 7 4 C7.33 2.68 7.66 1.36 8 0 C12.29 0 16.58 0 21 0 C21 14.19 21 28.38 21 43 C16.71 43 12.42 43 8 43 C7.67 41.68 7.34 40.36 7 39 C6.401875 39.474375 5.80375 39.94875 5.1875 40.4375 C0.32410878 43.91135087 -5.25886792 43.57009843 -11 43 C-16.36712697 41.28291185 -19.32275464 37.85870454 -22 33 C-24.98069 26.67275913 -25.16901386 19.32605131 -23.34765625 12.5859375 C-18.74630728 2.35632906 -10.70150131 -1.13188956 0 0 Z " fill="#E38824" transform="translate(734,1227)"/>
<path d="M0 0 C5.04885564 3.02931338 8.65629405 7.96888215 10.5 13.5 C11.32593927 21.63393352 11.41110145 28.12754709 6.22265625 34.7265625 C0.9635123 40.14073791 -4.12775702 41.6875919 -11.625 41.9375 C-17.69203385 41.99070042 -21.9456957 41.11132224 -26.76171875 37.29296875 C-29.40040879 34.57126374 -30.91085978 31.94313714 -32.5 28.5 C-32.83 27.84 -33.16 27.18 -33.5 26.5 C-34.16291888 18.827529 -34.35587244 11.80516359 -29.5 5.5 C-22.09978971 -2.40707401 -9.9536025 -4.35109123 0 0 Z " fill="#E38825" transform="translate(1328.5,1228.5)"/>
<path d="M0 0 C4.83059686 2.8738994 8.43056381 7.13363323 10.5 12.375 C11.33463354 20.00091486 11.80008225 27.53355517 6.92578125 33.86328125 C2.60554421 38.44391614 -1.44436011 41.06103939 -7.76953125 41.7109375 C-21.07093904 41.85759029 -21.07093904 41.85759029 -26.5 37.375 C-31.12102435 32.46887389 -33.2614502 27.28530753 -33.8125 20.5625 C-33.62817772 14.54898561 -32.01069655 9.31732414 -28.3125 4.5625 C-19.99651852 -1.90548559 -10.13958432 -4.57049445 0 0 Z " fill="#E38823" transform="translate(1017.5,1336.625)"/>
<path d="M0 0 C30.41463415 0 30.41463415 0 37.9375 6.5625 C41.39513131 10.64879155 41.28547855 14.37157567 41.2109375 19.5 C40.78712541 24.52295807 38.76187474 27.22040724 35.3125 30.75 C28.68710675 35.80023848 20.92263014 35.19806575 13 35 C13 41.27 13 47.54 13 54 C8.71 54 4.42 54 0 54 C0 36.18 0 18.36 0 0 Z " fill="#E38825" transform="translate(425,1216)"/>
<path d="M0 0 C4.62 0 9.24 0 14 0 C14.33 5.94 14.66 11.88 15 18 C16.98 16.68 18.96 15.36 21 14 C25.63437999 13.10279534 29.86830008 13.61564908 34.3125 15.125 C37.91554092 17.63874948 41.10143912 20.49669217 42.63061523 24.75683594 C43.13866303 27.84205946 43.11090358 30.82675556 43.09765625 33.953125 C43.0962413 34.61334656 43.09482635 35.27356812 43.09336853 35.95379639 C43.08779245 38.05257794 43.07524447 40.15125095 43.0625 42.25 C43.0574819 43.67708179 43.05291954 45.10416525 43.04882812 46.53125 C43.03868377 50.02090832 43.01910401 53.51033332 43 57 C38.71 57 34.42 57 30 57 C29.97421875 55.09734375 29.9484375 53.1946875 29.921875 51.234375 C29.86560098 48.73956017 29.8082535 46.24476939 29.75 43.75 C29.73582031 42.49574219 29.72164063 41.24148438 29.70703125 39.94921875 C29.67480469 38.74394531 29.64257812 37.53867188 29.609375 36.296875 C29.58842773 35.18666992 29.56748047 34.07646484 29.54589844 32.93261719 C28.88123876 29.36200356 27.88272165 28.15592012 25 26 C20.42689393 25.38970551 20.42689393 25.38970551 16.31713867 27.1262207 C14.39172519 29.86533998 14.56346758 32.09473314 14.48828125 35.41796875 C14.45283203 36.67158203 14.41738281 37.92519531 14.38085938 39.21679688 C14.34702148 41.18229492 14.34702148 41.18229492 14.3125 43.1875 C14.27932334 44.52282013 14.24483334 45.85810832 14.20898438 47.19335938 C14.12638491 50.46193825 14.06151996 53.73095644 14 57 C9.38 57 4.76 57 0 57 C0 38.19 0 19.38 0 0 Z " fill="#E38A27" transform="translate(477,1213)"/>
<path d="M0 0 C4.71920985 2.68015503 7.11396649 6.20030082 9.2578125 11.11328125 C9.2578125 12.43328125 9.2578125 13.75328125 9.2578125 15.11328125 C4.3078125 15.11328125 -0.6421875 15.11328125 -5.7421875 15.11328125 C-6.0721875 13.79328125 -6.4021875 12.47328125 -6.7421875 11.11328125 C-11.35726524 10.07113434 -11.35726524 10.07113434 -15.7421875 11.11328125 C-15.96009469 13.99725625 -15.96009469 13.99725625 -14.7421875 17.11328125 C-11.9464415 18.94390336 -8.87003009 19.97152276 -5.7421875 21.11328125 C6.83387741 26.26541107 6.83387741 26.26541107 9.2578125 31.11328125 C9.65826518 35.89561042 9.8958053 40.48285521 8.1328125 44.98828125 C3.97588848 49.69946181 0.25871192 52.84690928 -6.21875 53.421875 C-13.80298114 53.74349698 -19.91162455 53.88737012 -26.1015625 48.90234375 C-29.3399157 45.37099669 -30.7421875 41.97108745 -30.7421875 37.11328125 C-26.1221875 37.11328125 -21.5021875 37.11328125 -16.7421875 37.11328125 C-16.0821875 38.43328125 -15.4221875 39.75328125 -14.7421875 41.11328125 C-11.97968714 42.49453143 -9.79487651 42.30407431 -6.7421875 42.11328125 C-4.49852087 40.30245621 -4.49852087 40.30245621 -4.5546875 37.73828125 C-6.22864892 34.03794547 -8.46418589 33.53736961 -12.12890625 32.0703125 C-13.87695997 31.43014335 -15.62968421 30.80259185 -17.38671875 30.1875 C-23.90618812 27.812341 -27.55032106 25.49701414 -30.7421875 19.11328125 C-31.29894806 14.5496701 -31.18792285 11.04041078 -29.1796875 6.86328125 C-21.39852733 -1.91546355 -11.21865828 -3.6276858 0 0 Z " fill="#E38825" transform="translate(1145.7421875,1324.88671875)"/>
<path d="M0 0 C5.09620539 3.01237564 8.70841667 7.93775001 10.5625 13.5 C10.5625 16.8 10.5625 20.1 10.5625 23.5 C0.9925 23.5 -8.5775 23.5 -18.4375 23.5 C-17.0054835 28.28988522 -17.0054835 28.28988522 -14.6875 29.875 C-11.6362149 30.72257919 -9.47767602 30.2930894 -6.4375 29.5 C-5.7775 28.84 -5.1175 28.18 -4.4375 27.5 C-1.1796875 27.3046875 -1.1796875 27.3046875 2.6875 27.375 C4.60949219 27.40207031 4.60949219 27.40207031 6.5703125 27.4296875 C8.05144531 27.46449219 8.05144531 27.46449219 9.5625 27.5 C7.53090379 33.47528296 4.81221835 36.94450894 -0.4375 40.5 C-6.60668335 42.55639445 -16.49645874 43.04394261 -22.5 40.0625 C-27.02551065 36.11471412 -32.02655469 30.21024908 -32.7109375 24.03125 C-32.96557839 16.43119877 -32.00411946 10.71789084 -27.4375 4.5 C-20.24803434 -2.32763259 -9.15902066 -4.02925909 0 0 Z " fill="#E38A27" transform="translate(1228.4375,1228.5)"/>
<path d="M0 0 C5.09620539 3.01237564 8.70841667 7.93775001 10.5625 13.5 C10.5625 16.8 10.5625 20.1 10.5625 23.5 C0.9925 23.5 -8.5775 23.5 -18.4375 23.5 C-17.0054835 28.28988522 -17.0054835 28.28988522 -14.6875 29.875 C-11.6362149 30.72257919 -9.47767602 30.2930894 -6.4375 29.5 C-5.7775 28.84 -5.1175 28.18 -4.4375 27.5 C-1.1796875 27.3046875 -1.1796875 27.3046875 2.6875 27.375 C4.60949219 27.40207031 4.60949219 27.40207031 6.5703125 27.4296875 C8.05144531 27.46449219 8.05144531 27.46449219 9.5625 27.5 C7.53090379 33.47528296 4.81221835 36.94450894 -0.4375 40.5 C-6.60668335 42.55639445 -16.49645874 43.04394261 -22.5 40.0625 C-27.02551065 36.11471412 -32.02655469 30.21024908 -32.7109375 24.03125 C-32.96557839 16.43119877 -32.00411946 10.71789084 -27.4375 4.5 C-20.24803434 -2.32763259 -9.15902066 -4.02925909 0 0 Z " fill="#E38A27" transform="translate(849.4375,1228.5)"/>
<path d="M0 0 C4.47505843 2.67181759 7.19149566 6.1318497 9.8125 10.625 C10.5 13.375 10.5 13.375 10.5 23.375 C0.6 23.375 -9.3 23.375 -19.5 23.375 C-18.84 25.355 -18.18 27.335 -17.5 29.375 C-11.43949386 30.4562391 -11.43949386 30.4562391 -5.5 29.375 C-5.5 28.715 -5.5 28.055 -5.5 27.375 C-0.88 27.375 3.74 27.375 8.5 27.375 C7.48992042 32.4253979 6.19927234 34.99613707 2.5 38.375 C-3.89520018 42.45704267 -11.11525475 42.14913702 -18.5 41.375 C-23.94365501 39.72794541 -27.29138693 35.8670583 -30.5 31.375 C-33.54902036 25.08438956 -33.6032646 17.69030079 -31.8828125 10.9609375 C-29.53772639 5.58591713 -25.47259236 2.3258813 -20.5 -0.625 C-14.15622737 -2.73959088 -6.13848429 -2.82863234 0 0 Z " fill="#E38927" transform="translate(1333.5,1336.625)"/>
<path d="M0 0 C4.47505843 2.67181759 7.19149566 6.1318497 9.8125 10.625 C10.5 13.375 10.5 13.375 10.5 23.375 C0.6 23.375 -9.3 23.375 -19.5 23.375 C-18.84 25.355 -18.18 27.335 -17.5 29.375 C-16.06359829 29.57073608 -14.62580496 29.75627816 -13.1875 29.9375 C-12.38699219 30.04191406 -11.58648438 30.14632813 -10.76171875 30.25390625 C-8.33182884 30.52255178 -8.33182884 30.52255178 -5.5 29.375 C-5.5 28.715 -5.5 28.055 -5.5 27.375 C-0.88 27.375 3.74 27.375 8.5 27.375 C7.48992042 32.4253979 6.19927234 34.99613707 2.5 38.375 C-3.89520018 42.45704267 -11.11525475 42.14913702 -18.5 41.375 C-23.94365501 39.72794541 -27.29138693 35.8670583 -30.5 31.375 C-33.54902036 25.08438956 -33.6032646 17.69030079 -31.8828125 10.9609375 C-29.53772639 5.58591713 -25.47259236 2.3258813 -20.5 -0.625 C-14.15622737 -2.73959088 -6.13848429 -2.82863234 0 0 Z " fill="#E38927" transform="translate(1524.5,1228.625)"/>
<path d="M0 0 C4.95 0 9.9 0 15 0 C15.47050781 1.22976563 15.94101563 2.45953125 16.42578125 3.7265625 C17.0545311 5.35943523 17.68344609 6.99224438 18.3125 8.625 C18.7755957 9.83736328 18.7755957 9.83736328 19.24804688 11.07421875 C19.55419922 11.86699219 19.86035156 12.65976563 20.17578125 13.4765625 C20.45333252 14.19924316 20.73088379 14.92192383 21.0168457 15.66650391 C22.21225697 18.50378747 23.62310595 21.2462119 25 24 C27.97 16.08 30.94 8.16 34 0 C38.62 0 43.24 0 48 0 C47.27555293 3.62223536 46.63224921 6.19858962 45.23754883 9.4921875 C44.87659622 10.35078369 44.51564362 11.20937988 44.14375305 12.09399414 C43.75213486 13.01172607 43.36051666 13.92945801 42.95703125 14.875 C42.34791145 16.31637329 42.34791145 16.31637329 41.72648621 17.78686523 C40.86537474 19.82190678 40.00198089 21.85598384 39.13647461 23.88916016 C37.82991392 26.95908387 36.53054449 30.03196893 35.23242188 33.10546875 C30.97999815 43.14980203 26.65177949 53.13305038 22 63 C17.38 63 12.76 63 8 63 C9.86388552 57.40834344 12.17398208 52.53494354 14.85546875 47.31640625 C17.10267018 40.80489084 14.44466532 35.0060292 11.875 28.984375 C11.56804199 28.24672913 11.26108398 27.50908325 10.94482422 26.74908447 C9.97081639 24.41279027 8.98578262 22.08134697 8 19.75 C7.0167128 17.40338798 6.03568418 15.05584312 5.05517578 12.70806885 C4.44632372 11.25253687 3.83540077 9.79786899 3.22216797 8.34417725 C2.05905449 5.58161358 0.94833545 2.84500635 0 0 Z " fill="#E38825" transform="translate(1163,1335)"/>
<path d="M0 0 C4.29 0 8.58 0 13 0 C13.03738281 1.90265625 13.07476563 3.8053125 13.11328125 5.765625 C13.17893419 8.2604366 13.24538175 10.75522739 13.3125 13.25 C13.33505859 14.50425781 13.35761719 15.75851562 13.38085938 17.05078125 C13.41630859 18.25605469 13.45175781 19.46132812 13.48828125 20.703125 C13.51446533 21.81333008 13.54064941 22.92353516 13.56762695 24.06738281 C14.04172988 27.28303748 14.72258872 28.71162646 17 31 C19.50880616 31.48261667 19.50880616 31.48261667 22.1875 31.25 C23.53908203 31.19585938 23.53908203 31.19585938 24.91796875 31.140625 C25.60503906 31.09421875 26.29210937 31.0478125 27 31 C28.1007076 27.6978772 28.20627072 25.05916721 28.31640625 21.58203125 C28.35830078 20.32841797 28.40019531 19.07480469 28.44335938 17.78320312 C28.48267578 16.47287109 28.52199219 15.16253906 28.5625 13.8125 C28.60570992 12.47720022 28.649325 11.14191348 28.69335938 9.80664062 C28.79956434 6.53788766 28.90029785 3.26895777 29 0 C33.62 0 38.24 0 43 0 C43 14.19 43 28.38 43 43 C38.38 43 33.76 43 29 43 C28.67 41.68 28.34 40.36 28 39 C27.401875 39.474375 26.80375 39.94875 26.1875 40.4375 C21.32500062 43.91071384 15.74030239 43.5674511 10 43 C5.32473528 40.95988449 3.03252033 38.27929661 0.81811523 33.69726562 C-0.99972024 27.70399605 -0.39922886 21.20426036 -0.25 15 C-0.22990336 13.54299331 -0.21165818 12.08595985 -0.1953125 10.62890625 C-0.15156901 7.0853745 -0.08271767 3.54286123 0 0 Z " fill="#E38A28" transform="translate(868,1335)"/>
<path d="M0 0 C4.29 0 8.58 0 13 0 C13.03738281 1.90265625 13.07476563 3.8053125 13.11328125 5.765625 C13.17893419 8.2604366 13.24538175 10.75522739 13.3125 13.25 C13.33505859 14.50425781 13.35761719 15.75851562 13.38085938 17.05078125 C13.41630859 18.25605469 13.45175781 19.46132812 13.48828125 20.703125 C13.51446533 21.81333008 13.54064941 22.92353516 13.56762695 24.06738281 C14.04172988 27.28303748 14.72258872 28.71162646 17 31 C19.50880616 31.48261667 19.50880616 31.48261667 22.1875 31.25 C23.53908203 31.19585938 23.53908203 31.19585938 24.91796875 31.140625 C25.60503906 31.09421875 26.29210937 31.0478125 27 31 C28.1007076 27.6978772 28.20627072 25.05916721 28.31640625 21.58203125 C28.35830078 20.32841797 28.40019531 19.07480469 28.44335938 17.78320312 C28.48267578 16.47287109 28.52199219 15.16253906 28.5625 13.8125 C28.60570992 12.47720022 28.649325 11.14191348 28.69335938 9.80664062 C28.79956434 6.53788766 28.90029785 3.26895777 29 0 C33.62 0 38.24 0 43 0 C43 14.19 43 28.38 43 43 C38.38 43 33.76 43 29 43 C28.67 41.68 28.34 40.36 28 39 C27.401875 39.474375 26.80375 39.94875 26.1875 40.4375 C21.32500062 43.91071384 15.74030239 43.5674511 10 43 C5.32473528 40.95988449 3.03252033 38.27929661 0.81811523 33.69726562 C-0.99972024 27.70399605 -0.39922886 21.20426036 -0.25 15 C-0.22990336 13.54299331 -0.21165818 12.08595985 -0.1953125 10.62890625 C-0.15156901 7.0853745 -0.08271767 3.54286123 0 0 Z " fill="#E38A28" transform="translate(871,1227)"/>
<path d="M0 0 C4.62 0 9.24 0 14 0 C14.03738281 1.98644531 14.07476563 3.97289062 14.11328125 6.01953125 C14.16195816 7.94574613 14.21073808 9.87195995 14.26245117 11.7980957 C14.31201319 13.7929063 14.34651133 15.78807257 14.38085938 17.78320312 C14.41630859 19.03681641 14.45175781 20.29042969 14.48828125 21.58203125 C14.51446533 22.73936768 14.54064941 23.8967041 14.56762695 25.08911133 C14.76244074 27.99487955 14.76244074 27.99487955 16.41088867 29.87402344 C18.38789955 31.27484909 19.5895739 31.4329348 22 31.4375 C23.0209375 31.46650391 23.0209375 31.46650391 24.0625 31.49609375 C26.89398486 30.77109662 27.51671452 29.48377809 29 27 C29.50253145 24.0064314 29.50253145 24.0064314 29.51171875 20.703125 C29.54716797 19.49785156 29.58261719 18.29257813 29.61914062 17.05078125 C29.64169922 15.79652344 29.66425781 14.54226563 29.6875 13.25 C29.72166016 11.98027344 29.75582031 10.71054688 29.79101562 9.40234375 C29.87348414 6.26854001 29.93841854 3.13428376 30 0 C34.29 0 38.58 0 43 0 C43 14.19 43 28.38 43 43 C38.71 43 34.42 43 30 43 C29.67 41.68 29.34 40.36 29 39 C28.401875 39.474375 27.80375 39.94875 27.1875 40.4375 C22.34198633 43.89858119 16.72425571 43.59781211 11 43 C5.86442079 40.4322104 3.00841191 37.57623481 0.9296875 32.265625 C-0.74619515 26.20708871 -0.20671616 19.78864259 -0.125 13.5625 C-0.11597656 12.25861328 -0.10695313 10.95472656 -0.09765625 9.61132812 C-0.07418478 6.40747269 -0.03831682 3.20371228 0 0 Z " fill="#E38926" transform="translate(1350,1227)"/>
<path d="M0 0 C4.29 0 8.58 0 13 0 C13.33 1.65 13.66 3.3 14 5 C14.598125 4.360625 15.19625 3.72125 15.8125 3.0625 C19.63367582 -0.54032291 23.50976622 -0.28681696 28.5 -0.20703125 C32.76207001 0.14592142 35.58277528 1.40562219 38.4375 4.6171875 C42.49709748 9.99154098 43.12726421 13.98376116 43.09765625 20.734375 C43.09443359 22.02988281 43.09121094 23.32539062 43.08789062 24.66015625 C43.07953598 26.02343817 43.07107104 27.38671942 43.0625 28.75 C43.05748168 30.12890465 43.05291935 31.50781104 43.04882812 32.88671875 C43.03704102 36.25783118 43.01910561 39.6289211 43 43 C38.38 43 33.76 43 29 43 C28.67 33.1 28.34 23.2 28 13 C25.41679994 12.13893331 23.66678376 11.78346381 21 11.6875 C19.9790625 11.63142578 19.9790625 11.63142578 18.9375 11.57421875 C16.85965474 11.84456119 16.85965474 11.84456119 15.41088867 13.63305664 C13.60614364 16.66074362 13.57114352 18.78351473 13.48828125 22.296875 C13.45283203 23.50214844 13.41738281 24.70742187 13.38085938 25.94921875 C13.34702148 27.83060547 13.34702148 27.83060547 13.3125 29.75 C13.27833984 31.01972656 13.24417969 32.28945312 13.20898438 33.59765625 C13.12651586 36.73145999 13.06158146 39.86571624 13 43 C8.71 43 4.42 43 0 43 C0 28.81 0 14.62 0 0 Z " fill="#E38926" transform="translate(1040,1335)"/>
<path d="M0 0 C4.05966723 2.53375983 6.99404565 6.59651807 8.68359375 11.05078125 C8.68359375 12.04078125 8.68359375 13.03078125 8.68359375 14.05078125 C6.4137971 14.15872402 4.14254179 14.23634301 1.87109375 14.30078125 C0.60652344 14.3471875 -0.65804688 14.39359375 -1.9609375 14.44140625 C-5.31640625 14.05078125 -5.31640625 14.05078125 -7.046875 12.06640625 C-7.67529297 11.06867188 -7.67529297 11.06867188 -8.31640625 10.05078125 C-11.81640625 9.38411458 -11.81640625 9.38411458 -15.31640625 10.05078125 C-17.51775134 12.2419819 -18.25218408 13.62263343 -18.71484375 16.70703125 C-18.70710938 17.64546875 -18.699375 18.58390625 -18.69140625 19.55078125 C-18.69914062 20.48921875 -18.706875 21.42765625 -18.71484375 22.39453125 C-18.25218408 25.47892907 -17.51775134 26.8595806 -15.31640625 29.05078125 C-11.81640625 29.71744792 -11.81640625 29.71744792 -8.31640625 29.05078125 C-7.89746094 28.385625 -7.47851562 27.72046875 -7.046875 27.03515625 C-5.31640625 25.05078125 -5.31640625 25.05078125 -1.9609375 24.66015625 C-0.69636719 24.7065625 0.56820313 24.75296875 1.87109375 24.80078125 C3.77955078 24.85492187 3.77955078 24.85492187 5.7265625 24.91015625 C6.70238281 24.9565625 7.67820312 25.00296875 8.68359375 25.05078125 C7.04476554 31.64922115 5.42239045 35.26317543 -0.31640625 39.05078125 C-6.66552233 42.14871203 -14.90622925 42.41971203 -21.64453125 40.328125 C-25.4075205 38.30756338 -27.97334362 35.56537519 -30.31640625 32.05078125 C-30.89390625 31.20515625 -31.47140625 30.35953125 -32.06640625 29.48828125 C-34.62042057 22.46474188 -34.33921023 15.42538807 -31.25390625 8.61328125 C-24.92694682 -2.59859558 -11.43212009 -5.0149217 0 0 Z " fill="#E38927" transform="translate(1474.31640625,1228.94921875)"/>
<path d="M0 0 C4.05966723 2.53375983 6.99404565 6.59651807 8.68359375 11.05078125 C8.68359375 12.04078125 8.68359375 13.03078125 8.68359375 14.05078125 C6.4137971 14.15872402 4.14254179 14.23634301 1.87109375 14.30078125 C0.60652344 14.3471875 -0.65804687 14.39359375 -1.9609375 14.44140625 C-5.31640625 14.05078125 -5.31640625 14.05078125 -7.046875 12.06640625 C-7.67529297 11.06867188 -7.67529297 11.06867188 -8.31640625 10.05078125 C-11.81640625 9.38411458 -11.81640625 9.38411458 -15.31640625 10.05078125 C-17.51775134 12.2419819 -18.25218408 13.62263343 -18.71484375 16.70703125 C-18.70710937 17.64546875 -18.699375 18.58390625 -18.69140625 19.55078125 C-18.69914063 20.48921875 -18.706875 21.42765625 -18.71484375 22.39453125 C-18.25218408 25.47892907 -17.51775134 26.8595806 -15.31640625 29.05078125 C-11.81640625 29.71744792 -11.81640625 29.71744792 -8.31640625 29.05078125 C-7.89746094 28.385625 -7.47851562 27.72046875 -7.046875 27.03515625 C-5.31640625 25.05078125 -5.31640625 25.05078125 -1.9609375 24.66015625 C-0.69636719 24.7065625 0.56820312 24.75296875 1.87109375 24.80078125 C3.77955078 24.85492187 3.77955078 24.85492187 5.7265625 24.91015625 C6.70238281 24.9565625 7.67820312 25.00296875 8.68359375 25.05078125 C7.04476554 31.64922115 5.42239045 35.26317543 -0.31640625 39.05078125 C-6.66552233 42.14871203 -14.90622925 42.41971203 -21.64453125 40.328125 C-25.4075205 38.30756338 -27.97334362 35.56537519 -30.31640625 32.05078125 C-30.89390625 31.20515625 -31.47140625 30.35953125 -32.06640625 29.48828125 C-34.62042057 22.46474188 -34.33921023 15.42538807 -31.25390625 8.61328125 C-24.92694682 -2.59859558 -11.43212009 -5.0149217 0 0 Z " fill="#E38927" transform="translate(1020.31640625,1228.94921875)"/>
<path d="M0 0 C3.90175145 2.35285201 7.0532847 5.1420744 9.44140625 9.05859375 C9.81818936 11.05086522 10.15698184 13.05105449 10.44140625 15.05859375 C8.1716096 15.16653652 5.90035429 15.24415551 3.62890625 15.30859375 C1.73205078 15.37820313 1.73205078 15.37820313 -0.203125 15.44921875 C-3.55859375 15.05859375 -3.55859375 15.05859375 -5.2890625 13.07421875 C-5.91748047 12.07648438 -5.91748047 12.07648438 -6.55859375 11.05859375 C-10.05859375 10.39192708 -10.05859375 10.39192708 -13.55859375 11.05859375 C-15.6278845 13.16126015 -16.47249704 14.53948121 -16.95703125 17.4609375 C-16.92182949 21.26859498 -16.72010818 24.52021231 -15.62109375 28.18359375 C-13.11558947 30.46132491 -12.17651486 30.34510773 -8.87109375 30.37109375 C-7.43206482 30.29076518 -5.99349184 30.19396149 -4.55859375 30.05859375 C-4.22859375 28.73859375 -3.89859375 27.41859375 -3.55859375 26.05859375 C1.06140625 26.05859375 5.68140625 26.05859375 10.44140625 26.05859375 C9.30923142 32.85164272 9.30923142 32.85164272 6.69140625 35.74609375 C6.2015625 36.30683594 5.71171875 36.86757812 5.20703125 37.4453125 C-0.53298033 42.69005759 -6.19549089 42.80198145 -13.58984375 42.53125 C-20.11964642 41.75358649 -23.76645171 39.29441864 -27.984375 34.40625 C-31.98177395 28.12854787 -31.31379796 20.17464163 -30.55859375 13.05859375 C-29.0906969 7.34335038 -26.10341217 4.1626504 -21.2421875 0.96875 C-15.23334539 -2.27964956 -6.32602912 -2.3275924 0 0 Z " fill="#E38926" transform="translate(797.55859375,1227.94140625)"/>
<path d="M0 0 C4.37034621 2.51355719 6.7305946 5.23473683 8.41796875 10.0859375 C8.41796875 11.0759375 8.41796875 12.0659375 8.41796875 13.0859375 C6.50255737 13.19435701 4.58537102 13.27171829 2.66796875 13.3359375 C1.06695313 13.40554688 1.06695313 13.40554688 -0.56640625 13.4765625 C-4.26085487 12.99800698 -5.16372135 11.80123283 -7.58203125 9.0859375 C-10.25038091 8.75095449 -10.25038091 8.75095449 -12.58203125 9.0859375 C-12.91203125 10.4059375 -13.24203125 11.7259375 -13.58203125 13.0859375 C-10.34809491 14.52324254 -7.17221424 15.89142649 -3.80859375 17 C0.36266414 18.37550863 3.71358724 19.49622275 7.10546875 22.3359375 C8.85200854 25.9953542 9.17359126 29.1536163 8.41796875 33.0859375 C5.96254964 38.09121492 3.50894704 39.99917608 -1.58203125 42.0859375 C-7.81764841 42.83259716 -15.06440422 43.44944022 -20.76953125 40.3984375 C-25.55531075 36.46346324 -27.3460787 34.26570023 -28.58203125 28.0859375 C-23.96203125 28.0859375 -19.34203125 28.0859375 -14.58203125 28.0859375 C-14.25203125 29.0759375 -13.92203125 30.0659375 -13.58203125 31.0859375 C-8.96695351 32.12808441 -8.96695351 32.12808441 -4.58203125 31.0859375 C-4.58203125 30.0959375 -4.58203125 29.1059375 -4.58203125 28.0859375 C-5.58363281 27.79460937 -6.58523438 27.50328125 -7.6171875 27.203125 C-23.50167165 22.39610965 -23.50167165 22.39610965 -26.58203125 17.0859375 C-27.6703582 12.25065634 -27.3578662 8.48840837 -24.95703125 4.1484375 C-18.0087283 -1.88561506 -8.66449766 -3.06731082 0 0 Z " fill="#E38824" transform="translate(1276.58203125,1227.9140625)"/>
<path d="M0 0 C3.90153789 2.2945965 6.66585954 4.78001505 8.41796875 9.05078125 C8.41796875 10.37078125 8.41796875 11.69078125 8.41796875 13.05078125 C6.50255737 13.15920076 4.58537102 13.23656204 2.66796875 13.30078125 C1.06695313 13.37039063 1.06695313 13.37039063 -0.56640625 13.44140625 C-4.26085487 12.96285073 -5.16372135 11.76607658 -7.58203125 9.05078125 C-10.25038091 8.71579824 -10.25038091 8.71579824 -12.58203125 9.05078125 C-12.91203125 10.37078125 -13.24203125 11.69078125 -13.58203125 13.05078125 C-10.59123299 15.04464676 -8.22230819 15.61221031 -4.77734375 16.42578125 C-0.24741748 17.71543997 3.81521889 19.69846105 7.41796875 22.73828125 C9.04671291 26.50475212 9.16355071 30.03021313 8.41796875 34.05078125 C6.73470034 37.32726668 4.51144509 39.4953952 1.1953125 41.1796875 C-5.28703019 43.21282733 -13.17773874 43.45819346 -19.4921875 40.84765625 C-23.2686966 38.41595283 -25.96890377 36.34153657 -27.58203125 32.05078125 C-27.58203125 30.73078125 -27.58203125 29.41078125 -27.58203125 28.05078125 C-25.47898648 27.94277895 -23.37436216 27.86519138 -21.26953125 27.80078125 C-19.51189453 27.73117187 -19.51189453 27.73117187 -17.71875 27.66015625 C-14.58203125 28.05078125 -14.58203125 28.05078125 -12.86328125 30.05078125 C-12.44046875 30.71078125 -12.01765625 31.37078125 -11.58203125 32.05078125 C-8.4561625 32.38475912 -8.4561625 32.38475912 -5.58203125 32.05078125 C-5.25203125 30.73078125 -4.92203125 29.41078125 -4.58203125 28.05078125 C-5.75121094 27.68726563 -6.92039062 27.32375 -8.125 26.94921875 C-9.67351334 26.44243256 -11.22167222 25.93456239 -12.76953125 25.42578125 C-13.53845703 25.18988281 -14.30738281 24.95398437 -15.09960938 24.7109375 C-20.60191301 22.86896461 -23.38722581 20.9436132 -26.58203125 16.05078125 C-27.82425952 11.85343854 -26.84775573 8.59245039 -24.95703125 4.73828125 C-18.78558091 -2.24520203 -8.53055233 -3.13604269 0 0 Z " fill="#E38824" transform="translate(1246.58203125,1335.94921875)"/>
<path d="M0 0 C3.78181849 2.31539907 5.61660759 4.1691024 8.0625 7.875 C8.19140625 10.5703125 8.19140625 10.5703125 8.0625 12.875 C6.12622231 12.98307131 4.18822244 13.0606225 2.25 13.125 C0.63158203 13.19460938 0.63158203 13.19460938 -1.01953125 13.265625 C-3.9375 12.875 -3.9375 12.875 -5.65625 10.875 C-6.29046875 9.885 -6.29046875 9.885 -6.9375 8.875 C-9.56375139 8.54074265 -9.56375139 8.54074265 -11.9375 8.875 C-12.5975 10.525 -13.2575 12.175 -13.9375 13.875 C-13.22464844 14.05675781 -12.51179687 14.23851562 -11.77734375 14.42578125 C3.50023312 18.4353741 3.50023312 18.4353741 8.0625 23.875 C9.6172669 26.98453379 9.34894437 29.43766761 9.0625 32.875 C6.57210131 37.85579738 4.15748659 39.79772159 -0.9375 41.875 C-3.67514708 42.23758365 -6.08244458 42.44686831 -8.8125 42.4375 C-9.87150513 42.43496216 -9.87150513 42.43496216 -10.9519043 42.43237305 C-16.30950931 42.24741474 -19.62691823 41.17466704 -23.51953125 37.53125 C-26.29864537 34.28512221 -27.9375 32.21467356 -27.9375 27.875 C-25.85531638 27.76667831 -23.77150871 27.68926459 -21.6875 27.625 C-19.94726562 27.55539062 -19.94726562 27.55539062 -18.171875 27.484375 C-14.28643818 27.95363065 -13.49114369 29.05718628 -10.9375 31.875 C-7.2699787 32.20917929 -7.2699787 32.20917929 -3.9375 31.875 C-3.9375 30.225 -3.9375 28.575 -3.9375 26.875 C-4.783125 26.71644531 -5.62875 26.55789063 -6.5 26.39453125 C-13.39016106 24.9773504 -19.48413893 23.51648428 -24.9375 18.875 C-26.79110833 15.16778333 -26.39065231 10.92145862 -25.9375 6.875 C-20.87734121 -2.27221012 -9.20099423 -3.38983998 0 0 Z " fill="#E38824" transform="translate(690.9375,1336.125)"/>
<path d="M0 0 C3.78181849 2.31539907 5.61660759 4.1691024 8.0625 7.875 C8.19140625 10.5703125 8.19140625 10.5703125 8.0625 12.875 C6.12622231 12.98307131 4.18822244 13.0606225 2.25 13.125 C0.63158203 13.19460938 0.63158203 13.19460938 -1.01953125 13.265625 C-3.9375 12.875 -3.9375 12.875 -5.65625 10.875 C-6.29046875 9.885 -6.29046875 9.885 -6.9375 8.875 C-9.56375139 8.54074265 -9.56375139 8.54074265 -11.9375 8.875 C-12.5975 10.525 -13.2575 12.175 -13.9375 13.875 C-13.22464844 14.05675781 -12.51179688 14.23851562 -11.77734375 14.42578125 C3.50023312 18.4353741 3.50023312 18.4353741 8.0625 23.875 C9.6172669 26.98453379 9.34894437 29.43766761 9.0625 32.875 C6.57210131 37.85579738 4.15748659 39.79772159 -0.9375 41.875 C-3.67514708 42.23758365 -6.08244458 42.44686831 -8.8125 42.4375 C-9.87150513 42.43496216 -9.87150513 42.43496216 -10.9519043 42.43237305 C-16.30950931 42.24741474 -19.62691823 41.17466704 -23.51953125 37.53125 C-26.29864537 34.28512221 -27.9375 32.21467356 -27.9375 27.875 C-25.85531638 27.76667831 -23.77150871 27.68926459 -21.6875 27.625 C-19.94726562 27.55539062 -19.94726562 27.55539062 -18.171875 27.484375 C-14.28643818 27.95363065 -13.49114369 29.05718628 -10.9375 31.875 C-7.2699787 32.20917929 -7.2699787 32.20917929 -3.9375 31.875 C-3.9375 30.225 -3.9375 28.575 -3.9375 26.875 C-4.783125 26.71644531 -5.62875 26.55789063 -6.5 26.39453125 C-13.39016106 24.9773504 -19.48413893 23.51648428 -24.9375 18.875 C-26.79110833 15.16778333 -26.39065231 10.92145862 -25.9375 6.875 C-20.87734121 -2.27221012 -9.20099423 -3.38983998 0 0 Z " fill="#E38824" transform="translate(1571.9375,1228.125)"/>
<path d="M0 0 C4.29 0 8.58 0 13 0 C13 3.3 13 6.6 13 10 C15.97 10 18.94 10 22 10 C22 13.63 22 17.26 22 21 C19.03 21 16.06 21 13 21 C13.14016167 24.14618209 13.28684905 27.29181816 13.4375 30.4375 C13.47681641 31.33533203 13.51613281 32.23316406 13.55664062 33.15820312 C13.59853516 34.01220703 13.64042969 34.86621094 13.68359375 35.74609375 C13.72025146 36.53685303 13.75690918 37.3276123 13.79467773 38.14233398 C13.80563257 40.01401441 13.80563257 40.01401441 15 41 C17.32817964 41.36760731 19.6618385 41.70241581 22 42 C22 45.63 22 49.26 22 53 C8.97140056 53.56921066 8.97140056 53.56921066 4 50 C0.55968237 46.20378745 -0.12669652 42.91849819 -0.09765625 37.89453125 C-0.09443359 36.91162109 -0.09121094 35.92871094 -0.08789062 34.91601562 C-0.07951172 33.89185547 -0.07113281 32.86769531 -0.0625 31.8125 C-0.05798828 30.77673828 -0.05347656 29.74097656 -0.04882812 28.67382812 C-0.0370401 26.11582734 -0.02058515 23.55794267 0 21 C-1.65 21 -3.3 21 -5 21 C-5 17.37 -5 13.74 -5 10 C-3.35 10 -1.7 10 0 10 C0 6.7 0 3.4 0 0 Z " fill="#E38723" transform="translate(1270,1325)"/>
<path d="M0 0 C4.29 0 8.58 0 13 0 C13 3.3 13 6.6 13 10 C15.97 10 18.94 10 22 10 C22 13.63 22 17.26 22 21 C19.03 21 16.06 21 13 21 C13.14016167 24.14618209 13.28684905 27.29181816 13.4375 30.4375 C13.47681641 31.33533203 13.51613281 32.23316406 13.55664062 33.15820312 C13.59853516 34.01220703 13.64042969 34.86621094 13.68359375 35.74609375 C13.72025146 36.53685303 13.75690918 37.3276123 13.79467773 38.14233398 C13.80563257 40.01401441 13.80563257 40.01401441 15 41 C17.32817964 41.36760731 19.6618385 41.70241581 22 42 C22 45.63 22 49.26 22 53 C8.90480792 53.77410002 8.90480792 53.77410002 3 49 C-0.79488308 43.46727327 -0.34954163 38.06511607 -0.1875 31.625 C-0.17396484 30.60277344 -0.16042969 29.58054687 -0.14648438 28.52734375 C-0.11130217 26.01767951 -0.06207539 23.5091191 0 21 C-1.65 21 -3.3 21 -5 21 C-5 17.37 -5 13.74 -5 10 C-3.35 10 -1.7 10 0 10 C0 6.7 0 3.4 0 0 Z " fill="#E38824" transform="translate(926,1325)"/>
<path d="M0 0 C4.29 0 8.58 0 13 0 C13 3.3 13 6.6 13 10 C15.97 10 18.94 10 22 10 C22 13.63 22 17.26 22 21 C19.03 21 16.06 21 13 21 C13.14016167 24.14618209 13.28684905 27.29181816 13.4375 30.4375 C13.47681641 31.33533203 13.51613281 32.23316406 13.55664062 33.15820312 C13.59853516 34.01220703 13.64042969 34.86621094 13.68359375 35.74609375 C13.72025146 36.53685303 13.75690918 37.3276123 13.79467773 38.14233398 C13.80563257 40.01401441 13.80563257 40.01401441 15 41 C17.32817964 41.36760731 19.6618385 41.70241581 22 42 C22 45.63 22 49.26 22 53 C8.90480792 53.77410002 8.90480792 53.77410002 3 49 C-0.79488308 43.46727327 -0.34954163 38.06511607 -0.1875 31.625 C-0.17396484 30.60277344 -0.16042969 29.58054687 -0.14648438 28.52734375 C-0.11130217 26.01767951 -0.06207539 23.5091191 0 21 C-1.65 21 -3.3 21 -5 21 C-5 17.37 -5 13.74 -5 10 C-3.35 10 -1.7 10 0 10 C0 6.7 0 3.4 0 0 Z " fill="#E38824" transform="translate(714,1325)"/>
<path d="M0 0 C4.29 0 8.58 0 13 0 C13 3.3 13 6.6 13 10 C15.97 10 18.94 10 22 10 C22 13.63 22 17.26 22 21 C19.03 21 16.06 21 13 21 C13.14016167 24.14618209 13.28684905 27.29181816 13.4375 30.4375 C13.47681641 31.33533203 13.51613281 32.23316406 13.55664062 33.15820312 C13.59853516 34.01220703 13.64042969 34.86621094 13.68359375 35.74609375 C13.72025146 36.53685303 13.75690918 37.3276123 13.79467773 38.14233398 C13.80563257 40.01401441 13.80563257 40.01401441 15 41 C17.32817964 41.36760731 19.6618385 41.70241581 22 42 C22 45.63 22 49.26 22 53 C8.90480792 53.77410002 8.90480792 53.77410002 3 49 C-0.79488308 43.46727327 -0.34954163 38.06511607 -0.1875 31.625 C-0.17396484 30.60277344 -0.16042969 29.58054687 -0.14648438 28.52734375 C-0.11130217 26.01767951 -0.06207539 23.5091191 0 21 C-1.65 21 -3.3 21 -5 21 C-5 17.37 -5 13.74 -5 10 C-3.35 10 -1.7 10 0 10 C0 6.7 0 3.4 0 0 Z " fill="#E38824" transform="translate(929,1217)"/>
<path d="M0 0 C4.29 0 8.58 0 13 0 C13 18.81 13 37.62 13 57 C8.71 57 4.42 57 0 57 C0 38.19 0 19.38 0 0 Z " fill="#E38621" transform="translate(1097,1213)"/>
<path d="M0 0 C4.29 0 8.58 0 13 0 C13.33 1.98 13.66 3.96 14 6 C14.78375 5.195625 15.5675 4.39125 16.375 3.5625 C20.52057244 -0.48436834 20.60637735 0 27 0 C27 4.62 27 9.24 27 14 C24.78645833 14.13020833 22.57291667 14.26041667 20.359375 14.390625 C17.19941161 15.20677448 16.05495514 16.48437826 14 19 C13.3636349 21.69237987 13.3636349 21.69237987 13.390625 24.640625 C13.35839844 25.71054688 13.32617188 26.78046875 13.29296875 27.8828125 C13.27169922 29.54957031 13.27169922 29.54957031 13.25 31.25 C13.22035156 32.37664062 13.19070313 33.50328125 13.16015625 34.6640625 C13.0895225 37.44232338 13.04248981 40.2211662 13 43 C8.71 43 4.42 43 0 43 C0 28.81 0 14.62 0 0 Z " fill="#E38823" transform="translate(590,1227)"/>
<path d="M0 0 C4.29 0 8.58 0 13 0 C13.33 1.65 13.66 3.3 14 5 C14.44730469 4.6390625 14.89460937 4.278125 15.35546875 3.90625 C15.96003906 3.4421875 16.56460938 2.978125 17.1875 2.5 C17.77917969 2.0359375 18.37085938 1.571875 18.98046875 1.09375 C21 0 21 0 26 0 C26 4.62 26 9.24 26 14 C22.19140625 14.68359375 22.19140625 14.68359375 18.3828125 15.3671875 C15.83494012 15.83044703 15.83494012 15.83044703 14 18 C13.62826984 20.6182767 13.62826984 20.6182767 13.5859375 23.6640625 C13.52792969 25.34628906 13.52792969 25.34628906 13.46875 27.0625 C13.42234375 28.8259375 13.42234375 28.8259375 13.375 30.625 C13.31699219 32.40003906 13.31699219 32.40003906 13.2578125 34.2109375 C13.16331496 37.14036139 13.08056001 40.0701597 13 43 C8.71 43 4.42 43 0 43 C0 28.81 0 14.62 0 0 Z " fill="#E38723" transform="translate(748,1335)"/>
<path d="M0 0 C4.29 0 8.58 0 13 0 C13.33 1.65 13.66 3.3 14 5 C14.44730469 4.6390625 14.89460938 4.278125 15.35546875 3.90625 C15.96003906 3.4421875 16.56460937 2.978125 17.1875 2.5 C17.77917969 2.0359375 18.37085938 1.571875 18.98046875 1.09375 C21 0 21 0 26 0 C26 4.62 26 9.24 26 14 C22.19140625 14.68359375 22.19140625 14.68359375 18.3828125 15.3671875 C15.83494012 15.83044703 15.83494012 15.83044703 14 18 C13.62826984 20.6182767 13.62826984 20.6182767 13.5859375 23.6640625 C13.52792969 25.34628906 13.52792969 25.34628906 13.46875 27.0625 C13.42234375 28.8259375 13.42234375 28.8259375 13.375 30.625 C13.31699219 32.40003906 13.31699219 32.40003906 13.2578125 34.2109375 C13.16331496 37.14036139 13.08056001 40.0701597 13 43 C8.71 43 4.42 43 0 43 C0 28.81 0 14.62 0 0 Z " fill="#E38723" transform="translate(1407,1227)"/>
<path d="M0 0 C4.62 0 9.24 0 14 0 C14 14.19 14 28.38 14 43 C9.38 43 4.76 43 0 43 C0 28.81 0 14.62 0 0 Z " fill="#E48D2E" transform="translate(638,1335)"/>
<path d="M0 0 C14.12903226 0 14.12903226 0 18 3 C21.69643597 7.76645691 22.66762314 11.55324919 22.375 17.5703125 C21.65477568 22.2367659 20.05863221 25.40147683 16.3046875 28.31640625 C10.47317466 31.70434994 7.29706401 31 0 31 C0 20.77 0 10.54 0 0 Z " fill="#FEFCF9" transform="translate(591,1336)"/>
<path d="M0 0 C4.29 0 8.58 0 13 0 C13 14.19 13 28.38 13 43 C8.71 43 4.42 43 0 43 C0 28.81 0 14.62 0 0 Z " fill="#E38723" transform="translate(960,1335)"/>
<path d="M0 0 C4.29 0 8.58 0 13 0 C13 14.19 13 28.38 13 43 C8.71 43 4.42 43 0 43 C0 28.81 0 14.62 0 0 Z " fill="#E38621" transform="translate(785,1335)"/>
<path d="M0 0 C4.29 0 8.58 0 13 0 C13 14.19 13 28.38 13 43 C8.71 43 4.42 43 0 43 C0 28.81 0 14.62 0 0 Z " fill="#E38723" transform="translate(963,1227)"/>
<path d="M0 0 C3.75 0.375 3.75 0.375 6.625 2.75 C9.9239642 6.82519108 10.10615167 9.12176294 9.75 14.375 C8.3810355 17.61728433 7.45995821 18.98265468 4.375 20.6875 C1.51935846 21.43540612 -0.32870788 21.88622612 -3.25 21.375 C-6 18.9375 -6 18.9375 -8.25 16.375 C-8.58 16.045 -8.91 15.715 -9.25 15.375 C-9.69166754 12.32118444 -9.73223087 9.42394358 -9.25 6.375 C-6.8125 3.375 -6.8125 3.375 -4.25 1.375 C-3.25 0.375 -3.25 0.375 0 0 Z " fill="#FDF9F5" transform="translate(834.25,1345.625)"/>
<path d="M0 0 C2.875 2.4375 2.875 2.4375 5 5 C5.33 5.33 5.66 5.66 6 6 C6.35536226 11.33043395 6.44866826 14.65723256 3 19 C-0.48804095 21.32536063 -1.90140754 21.33457898 -6 21 C-8.86389573 20.09991849 -9.86362871 19.17046411 -11.75 16.8125 C-13.32923797 13.25921457 -13.41323619 10.85687108 -13 7 C-10.11863709 0.82565091 -6.74653938 -0.81423751 0 0 Z " fill="#FDFAF6" transform="translate(1064,1238)"/>
<path d="M0 0 C2.875 2.4375 2.875 2.4375 5 5 C5.33 5.33 5.66 5.66 6 6 C6.35536226 11.33043395 6.44866826 14.65723256 3 19 C-0.48804095 21.32536063 -1.90140754 21.33457898 -6 21 C-8.86389573 20.09991849 -9.86362871 19.17046411 -11.75 16.8125 C-13.32923797 13.25921457 -13.41323619 10.85687108 -13 7 C-10.11863709 0.82565091 -6.74653938 -0.81423751 0 0 Z " fill="#FDFAF6" transform="translate(557,1238)"/>
<path d="M0 0 C2.79708618 2.0066053 4.67128585 3.46496694 5.4140625 6.93359375 C5.60055933 11.41799468 4.7770584 14.36846209 2 18 C0 20 0 20 -3.3125 20.375 C-7.54545677 19.94452982 -9.03360375 18.96639625 -12 16 C-13.8457676 12.30846481 -13.48175083 8.02978061 -13 4 C-9.49130263 -0.96057214 -5.69187832 -1.59372593 0 0 Z " fill="#FEFCFB" transform="translate(737,1239)"/>
<path d="M0 0 C2.9375 1.875 2.9375 1.875 5 5 C5.85622002 9.18364416 5.87783987 13.03936206 4.11328125 16.98046875 C1.90830413 20.06450651 0.18492559 20.96367533 -3.5 21.6875 C-7 21 -7 21 -9.9375 19.1875 C-12.9483945 14.53429941 -12.99433111 10.39202317 -12 5 C-8.77279226 0.01249713 -5.81589049 -1.03855187 0 0 Z " fill="#FEFBF9" transform="translate(1010,1346)"/>
<path d="M0 0 C3.25578516 1.20987423 4.32959556 2.61231613 5.87109375 5.6953125 C6.68661296 10.38454793 6.54328803 13.61980165 3.99609375 17.6953125 C1.24185164 20.28754037 0.31208368 20.64631362 -3.50390625 21.0703125 C-7.12890625 20.6953125 -7.12890625 20.6953125 -9.56640625 18.8828125 C-11.88407429 14.15476969 -12.00245375 9.8592924 -11.12890625 4.6953125 C-8.14235115 -0.15783953 -5.36748174 -1.11611152 0 0 Z " fill="#FEFCF9" transform="translate(1320.12890625,1238.3046875)"/>
<path d="M0 0 C10.19694397 -0.48556876 10.19694397 -0.48556876 13.6875 1.625 C15.38115483 4.68970874 15.51410062 6.54818157 15 10 C13.859375 11.671875 13.859375 11.671875 12 13 C7.96740923 13.40487859 4.06287095 13.13106035 0 13 C0 8.71 0 4.42 0 0 Z " fill="#FEFCF9" transform="translate(1158,1227)"/>
<path d="M0 0 C10.14938489 -0.48330404 10.14938489 -0.48330404 13.75 1.5625 C15.54963144 5.07178131 15.03774589 7.26411481 14 11 C9.43362969 14.04424687 5.43284541 13.12783166 0 13 C0 8.71 0 4.42 0 0 Z " fill="#FDF9F4" transform="translate(438,1227)"/>
<path d="M0 0 C2.5 1.625 2.5 1.625 4 4 C4.5625 7 4.5625 7 4 10 C1.40841039 12.89648251 -0.2226093 13.87307907 -4.0625 14.5 C-7 14 -7 14 -9.375 12.4375 C-11.5996142 9.1005787 -11.50030235 6.93094707 -11 3 C-8.83051992 -1.20336765 -4.17489866 -0.74761767 0 0 Z " fill="#E48A28" transform="translate(970,1317)"/>
<path d="M0 0 C2 1 2 1 3 3 C3.45429103 5.76024928 3.51084843 8.2448624 3 11 C0.83222115 13.66803551 -0.55726577 13.93406086 -3.9375 14.4375 C-7.80632104 13.88481128 -9.39924487 12.90672632 -12 10 C-12.67927401 6.37720527 -12.46942769 4.74326051 -10.5 1.625 C-6.75900771 -0.80664499 -4.42573582 -0.49174842 0 0 Z " fill="#E48B29" transform="translate(649,1317)"/>
<path d="M0 0 C2.4375 1.625 2.4375 1.625 4 4 C4.61195145 7.6717087 4.48706506 9.28813568 2.375 12.375 C-0.73034361 14.49970879 -2.3013396 14.60386292 -6 14 C-8.875 12.375 -8.875 12.375 -11 10 C-11.68551032 6.34394496 -11.48491197 4.7370662 -9.4375 1.625 C-6.06489221 -0.62340519 -3.97487617 -0.56783945 0 0 Z " fill="#E38927" transform="translate(795,1317)"/>
<path d="M0 0 C2.5 1.5625 2.5 1.5625 4 4 C4 7.78814147 3.8367392 10.03929943 1.3125 12.9375 C-1.73602877 14.33817538 -3.67926952 14.4842732 -7 14 C-9.375 12.4375 -9.375 12.4375 -11 10 C-11.5 6.4375 -11.5 6.4375 -11 3 C-8.00347253 -0.71569406 -4.51782131 -0.56472766 0 0 Z " fill="#E48A28" transform="translate(973,1209)"/>
<path d="M0 0 C0.78246094 -0.02578125 1.56492187 -0.0515625 2.37109375 -0.078125 C4.5625 0.25 4.5625 0.25 6.34765625 1.578125 C7.5625 3.25 7.5625 3.25 7.5625 6.25 C2.6125 6.25 -2.3375 6.25 -7.4375 6.25 C-7.1075 4.6 -6.7775 2.95 -6.4375 1.25 C-4.11063547 0.08656773 -2.59028587 0.05104012 0 0 Z " fill="#FEFCFB" transform="translate(1322.4375,1345.75)"/>
<path d="M0 0 C0.78246094 -0.02578125 1.56492187 -0.0515625 2.37109375 -0.078125 C4.5625 0.25 4.5625 0.25 6.34765625 1.578125 C7.5625 3.25 7.5625 3.25 7.5625 6.25 C2.6125 6.25 -2.3375 6.25 -7.4375 6.25 C-7.1075 4.6 -6.7775 2.95 -6.4375 1.25 C-4.11063547 0.08656773 -2.59028587 0.05104012 0 0 Z " fill="#FEFCFB" transform="translate(1513.4375,1237.75)"/>
<path d="M0 0 C1.17369141 -0.02513672 1.17369141 -0.02513672 2.37109375 -0.05078125 C5.07388797 0.39727555 5.96255607 1.11579242 7.5625 3.3125 C7.5625 4.3025 7.5625 5.2925 7.5625 6.3125 C2.6125 6.3125 -2.3375 6.3125 -7.4375 6.3125 C-6.13536301 1.10395203 -5.17044256 0.02547016 0 0 Z " fill="#FEFDFC" transform="translate(1217.4375,1237.6875)"/>
<path d="M0 0 C1.17369141 -0.02513672 1.17369141 -0.02513672 2.37109375 -0.05078125 C5.07388797 0.39727555 5.96255607 1.11579242 7.5625 3.3125 C7.5625 4.3025 7.5625 5.2925 7.5625 6.3125 C2.6125 6.3125 -2.3375 6.3125 -7.4375 6.3125 C-6.13536301 1.10395203 -5.17044256 0.02547016 0 0 Z " fill="#FEFDFC" transform="translate(838.4375,1237.6875)"/>
</svg>
